<?xml version="1.0" encoding="UTF-8"?> <svg xmlns="http://www.w3.org/2000/svg" width="58" height="60" viewBox="0 0 58 60" fill="none"><path fill-rule="evenodd" clip-rule="evenodd" d="M56.8902 0L50.3274 11.0164H57.656V14.5321H44.141L50.7037 3.51562H44.8826V0H56.8902ZM39.5443 42.5791C43.0983 42.5791 46.5325 41.5393 49.4754 39.5721L53.7002 36.748L52.1234 41.5789C50.3884 46.8939 47.0816 51.4652 42.5605 54.799C37.9463 58.2015 32.4682 60 26.7188 60C19.5819 60 12.8723 57.2209 7.82578 52.1743C2.77922 47.1278 0 40.4181 0 33.2812C0 26.1444 2.77934 19.4346 7.82578 14.3882C12.8722 9.34172 19.5819 6.5625 26.7188 6.5625C27.3686 6.5625 28.0287 6.58652 28.6807 6.63387L33.7421 7.00207L29.5375 9.84363C24.5973 13.182 21.648 18.7294 21.648 24.6829C21.648 34.5509 29.6762 42.5791 39.5443 42.5791ZM26.7188 56.4844C31.7119 56.4844 36.4684 54.9232 40.4741 51.9695C43.1127 50.0238 45.2752 47.5935 46.8669 44.8092C44.5379 45.6568 42.0661 46.0948 39.5443 46.0948C27.7378 46.0948 18.1324 36.4894 18.1324 24.6829C18.1324 19.2882 20.156 14.1724 23.7052 10.2729C12.3299 11.7552 3.51562 21.5084 3.51562 33.2812C3.51562 46.0755 13.9245 56.4844 26.7188 56.4844ZM40.2823 13.3895H29.4247V16.9052H34.0958L29.0314 25.4063H40.1669V21.8907H35.2179L40.2823 13.3895ZM50.0302 27.9894L46.8247 33.37H50.1573V36.8857H40.6383L43.8437 31.505H40.9581V27.9894H50.0302Z" fill="#EB2A41"></path></svg> 